#!OML:ASF Y:\EmotionMaleHayes\Project 1\Capture day 1\Session 1\Male1.ASF
:FULLY-SPECIFIED
:DEGREES
379
root 44.4196 15.715 -0.664921 866.852 79.2887 874.617
lowerback 11.282 0.808583 -7.52747
upperback 7.21053 0.826781 -2.00647
thorax 1.20736 0.395612 2.05345
lowerneck -25.2494 -1.7097 0.493989
upperneck 25.0393 -3.38216 3.03579
head 12.5711 -0.94084 0.49263
rclavicle -2.60408e-014 -1.11319e-014
rhumerus -76.3494 19.0153 -80.2901
rradius 69.4687
rwrist -30.2661
rhand -27.6499 -25.9449
rfingers 7.12502
rthumb -1.04778 -55.9221
lclavicle -2.60408e-014 -1.11319e-014
lhumerus 0.175631 -37.0605 61.6766
lradius 96.2593
lwrist 24.9969
lhand -35.097 -45.1968
lfingers 7.12502
lthumb -8.23841 -15.3774
rfemur -23.2734 -5.4224 10.23
rtibia 29.229
rfoot -7.11308 -9.43533
rtoes 13.7496
lfemur -0.91592 -3.54645 -23.6344
ltibia 44.8353
lfoot -26.3496 3.20856
ltoes -35.0833
380
root 44.5657 15.7343 -0.668929 866.559 79.5475 874.459
lowerback 11.7642 0.869437 -7.29268
upperback 6.96318 0.851267 -1.9117
thorax 0.678703 0.428231 2.0112
lowerneck -25.182 -1.70671 0.578703
upperneck 25.0682 -3.39269 2.97937
head 12.5668 -0.94439 0.455668
rclavicle 2.18663e-014 2.70347e-014
rhumerus -73.8852 17.7856 -79.6372
rradius 67.3717
rwrist -29.431
rhand -28.6288 -26.576
rfingers 7.12502
rthumb -1.99317 -56.5464
lclavicle 2.18663e-014 2.70347e-014
lhumerus -3.86871 -36.8982 64.7592
lradius 96.5569
lwrist 23.9356
lhand -34.9493 -44.2204
lfingers 7.12502
lthumb -8.09581 -14.3955
rfemur -23.16 -5.82957 10.5294
rtibia 30.0628
rfoot -5.82431 -9.57361
rtoes 18.4793
lfemur -1.0436 -3.30114 -23.4434
ltibia 46.3706
lfoot -24.9366 2.99294
ltoes -35.3965
381
root 44.7103 15.7636 -0.656548 868.595 80.1511 876.937
lowerback 12.0911 0.940856 -6.74764
upperback 7.07249 0.977911 -1.5698
thorax 0.600546 0.50102 2.0456
lowerneck -25.1387 -1.80449 0.267063
upperneck 24.7356 -3.5438 3.45513
head 12.4468 -0.983652 0.66086
rclavicle 2.68359e-015 2.94201e-014
rhumerus -70.6089 16.4553 -78.8193
rradius 64.994
rwrist -28.3595
rhand -29.3038 -26.729
rfingers 7.12502
rthumb -2.64507 -56.6924
lclavicle 2.68359e-015 2.94201e-014
lhumerus -7.3672 -36.9305 67.551
lradius 95.5753
lwrist 21.9683
lhand -35.3782 -43.9712
lfingers 7.12502
lthumb -8.50974 -14.1626
rfemur -22.2427 -5.7119 11.5777
rtibia 30.0941
rfoot -4.59512 -9.82806
rtoes 21.4208
lfemur -1.16234 -2.91181 -22.348
ltibia 48.2716
lfoot -23.1965 2.24506
ltoes -33.935
382
root 44.8504 15.8026 -0.622018 869.685 80.2326 878.23
lowerback 12.3247 1.00664 -6.98572
upperback 7.05113 1.01709 -1.22223
thorax 0.443358 0.51009 2.5332
lowerneck -24.8886 -1.78023 0.256557
upperneck 24.4522 -3.48762 3.43778
head 12.2847 -0.972899 0.665282
rclavicle 1.83379e-014 8.34896e-015
rhumerus -66.8847 14.7754 -77.7442
rradius 62.1368
rwrist -26.8013
rhand -29.1157 -26.4663
rfingers 7.12502
rthumb -2.46341 -56.4319
lclavicle 1.83379e-014 8.34896e-015
lhumerus -11.1937 -36.9335 70.6047
lradius 94.2144
lwrist 20.5328
lhand -35.4299 -42.9918
lfingers 7.12502
lthumb -8.55965 -13.1853
rfemur -21.1476 -5.54854 12.0763
rtibia 29.2393
rfoot -3.44024 -10.4831
rtoes 19.5868
lfemur -1.91696 -2.72431 -21.6188
ltibia 50.5642
lfoot -20.933 1.4042
ltoes -32.4701
383
root 44.9918 15.8492 -0.634875 870.204 80.7376 879.165
lowerback 12.4831 1.10922 -6.54209
upperback 7.12728 1.19101 -0.985
thorax 0.418864 0.604518 2.50989
lowerneck -24.6224 -1.64281 0.5219
upperneck 24.3853 -3.29238 3.11836
head 12.1905 -0.909779 0.535301
rclavicle 9.98893e-015 6.55989e-015
rhumerus -62.8438 12.844 -76.7038
rradius 58.8595
rwrist -24.6017
rhand -28.518 -25.8364
rfingers 7.12502
rthumb -1.8862 -55.8078
lclavicle 9.98893e-015 6.55989e-015
lhumerus -15.0733 -36.7139 73.6462
lradius 92.3571
lwrist 19.75
lhand -34.8203 -41.7214
lfingers 7.12502
lthumb -7.97132 -11.8917
rfemur -19.6024 -5.98844 12.6268
rtibia 28.3146
rfoot -2.9724 -9.51985
rtoes 20.103
lfemur -2.18784 -2.2912 -21.1404
ltibia 52.4641
lfoot -18.4827 1.25091
ltoes -32.079
384
root 45.1461 15.9007 -0.598408 871.038 81.0249 880.201
lowerback 12.5786 1.28421 -6.7937
upperback 6.94201 1.36416 -0.660735
thorax 0.146515 0.682498 2.96441
lowerneck -24.1265 -1.60568 0.573494
upperneck 24.5205 -3.24381 3.12809
head 12.1462 -0.87925 0.542894
rclavicle 2.24627e-014 -6.36111e-015
rhumerus -59.22 10.6026 -75.7983
rradius 55.6559
rwrist -21.6909
rhand -27.5626 -25.3248
rfingers 7.12502
rthumb -0.963417 -55.3024
lclavicle 2.24627e-014 -6.36111e-015
lhumerus -19.0779 -36.5192 76.6887
lradius 89.9366
lwrist 19.4844
lhand -33.6775 -40.1852
lfingers 7.12502
lthumb -6.86822 -10.3166
rfemur -18.3145 -5.58077 13.1341
rtibia 27.2739
rfoot -2.94957 -9.55301
rtoes 19.8338
lfemur -2.93566 -1.87431 -20.3331
ltibia 54.5452
lfoot -16.0201 0.87766
ltoes -30.4591
385
root 45.2944 15.9596 -0.571277 871.348 80.8536 880.334
lowerback 12.3577 1.31903 -7.21706
upperback 6.71055 1.35356 -0.472983
thorax 0.0143628 0.663083 3.40109
lowerneck -23.9254 -1.82732 0.243629
upperneck 24.6626 -3.56938 3.62245
head 12.1875 -0.981246 0.731183
rclavicle -2.99419e-014 -1.59028e-014
rhumerus -55.7369 7.71325 -74.7491
rradius 53.0979
rwrist -18.1914
rhand -26.0428 -25.0909
rfingers 7.12502
rthumb 0.504455 -55.0701
lclavicle -2.99419e-014 -1.59028e-014
lhumerus -22.5654 -36.1638 79.4646
lradius 86.9526
lwrist 19.7881
lhand -32.1531 -38.1103
lfingers 7.12502
lthumb -5.39654 -8.19906
rfemur -17.471 -5.50836 13.1612
rtibia 26.5532
rfoot -3.29828 -9.36128
rtoes 17.7531
lfemur -4.19902 -1.86488 -20.1226
ltibia 56.5659
lfoot -13.4387 0.33131
ltoes -26.5088
386
root 45.423 16.017 -0.569243 874.167 80.6638 882.903
lowerback 12.1695 1.18415 -6.88693
upperback 6.49333 1.19602 -0.2929
thorax -0.100019 0.588816 3.42473
lowerneck -24.0827 -1.74512 0.725603
upperneck 25.182 -3.4789 3.04608
head 12.3977 -0.957186 0.450337
rclavicle -1.99282e-014 2.14687e-014
rhumerus -52.6382 5.21318 -74.2708
rradius 50.6188
rwrist -15.5521
rhand -24.9076 -24.0401
rfingers 7.12502
rthumb 1.60082 -54.0138
lclavicle -1.99282e-014 2.14687e-014
lhumerus -25.4443 -35.7625 81.9415
lradius 83.3061
lwrist 20.7233
lhand -30.654 -36.1467
lfingers 7.12502
lthumb -3.94906 -6.20359
rfemur -16.7469 -5.89319 13.5614
rtibia 25.9806
rfoot -3.53824 -8.79976
rtoes 15.2688
lfemur -5.60845 -2.11267 -19.7932
ltibia 58.2969
lfoot -11.3441 0.130535
ltoes -25.3769
387
root 45.5575 16.0647 -0.526367 884.806 81.2501 893.834
lowerback 11.9882 1.13977 -5.40737
upperback 6.67986 1.31556 0.325853
thorax 0.178342 0.66253 3.2295
lowerneck -24.1277 -1.82989 0.588778
upperneck 25.1083 -3.60947 3.25534
head 12.3876 -1.0005 0.529329
rclavicle 8.07563e-015 -7.85199e-015
rhumerus -49.4193 2.45363 -74.1055
rradius 48.7322
rwrist -13.3756
rhand -24.0876 -23.2579
rfingers 7.12502
rthumb 2.39273 -53.2242
lclavicle 8.07563e-015 -7.85199e-015
lhumerus -27.4049 -35.6491 83.8553
lradius 79.1512
lwrist 21.989
lhand -29.7468 -34.1794
lfingers 7.12502
lthumb -3.07294 -4.22183
rfemur -15.5517 -4.5453 16.0445
rtibia 25.1526
rfoot -3.88665 -9.86235
rtoes 20.8535
lfemur -6.57257 -1.74569 -17.1627
ltibia 59.7403
lfoot -10.4127 0.0295925
ltoes -28.1839
